<svg width="58" height="66" viewBox="0 0 58 66" fill="none" xmlns="http://www.w3.org/2000/svg">
<g clip-path="url(#clip0)">
<path d="M29.4421 63.8507C29.2742 63.6854 29.4381 63.3507 29.2702 63.1854C29.2716 63.3521 29.1064 63.5201 29.1077 63.6867C29.1091 63.8534 29.1104 64.02 29.1117 64.1867C29.1144 64.52 29.1144 64.52 28.7814 64.5227C28.6149 64.524 28.4484 64.5254 28.4484 64.5254C28.1154 64.528 27.7824 64.5307 27.4507 64.7C27.1177 64.7027 26.7861 64.872 26.6196 64.8734C26.2866 64.876 25.9536 64.8787 25.6206 64.8814C25.121 64.8854 24.788 64.8881 24.2885 64.8921C23.6225 64.8974 22.9565 64.9027 22.2905 64.9081C22.2905 64.9081 22.2905 64.9081 22.2919 65.0747C22.2919 65.0747 22.4597 65.2401 22.2932 65.2414C22.2932 65.2414 22.1267 65.2427 22.1253 65.0761C21.9588 65.0774 22.124 64.9094 22.124 64.9094C21.6245 64.9134 20.9585 64.9188 20.459 64.9228C19.9595 64.9268 19.46 64.9308 19.127 64.9334C18.794 64.9361 18.461 64.9388 18.128 64.9414L17.9615 64.9428C17.7963 65.1108 17.6298 65.1121 17.4633 65.1134C16.4643 65.1215 15.4653 65.1295 14.6328 65.1361C13.9668 65.1415 13.4673 65.1455 12.8012 65.1508C12.4682 65.1535 12.1352 65.1562 11.9687 65.1575L11.8022 65.1588C11.4679 64.9948 11.1349 64.9975 10.9711 65.3322C10.9711 65.3322 10.8059 65.5002 10.8046 65.3335C10.4716 65.3362 10.1386 65.3388 9.80555 65.3415C9.63905 65.3428 9.30604 65.3455 9.13954 65.3468C9.13954 65.3468 8.97304 65.3482 8.97171 65.1815C8.80387 65.0162 8.47086 65.0189 8.13786 65.0215C8.1392 65.1882 8.3057 65.1869 8.3057 65.1869C8.30703 65.3535 8.1392 65.1882 7.97269 65.1895C6.97368 65.1975 5.80817 65.2069 4.80916 65.2149C4.47616 65.2176 4.14315 65.2202 3.64365 65.2242C3.14414 65.2282 2.81114 65.2309 2.3103 65.0682C2.14379 65.0696 2.14379 65.0696 2.14246 64.9029C1.97462 64.7376 1.80545 64.4056 1.63761 64.2403C1.63761 64.2403 1.63627 64.0736 1.63494 63.907C1.61089 60.907 1.5855 57.7405 1.56146 54.7406C1.54008 52.074 1.51737 49.2408 1.49599 46.5742C1.49065 45.9075 1.48664 45.4075 1.4813 44.7409C1.47862 44.4076 1.47595 44.0743 1.47328 43.7409C1.47194 43.5743 1.46927 43.2409 1.46794 43.0743C1.46526 42.741 1.46393 42.5743 1.46126 42.241L1.45992 42.0743C1.45591 41.5743 1.4519 41.0743 1.4479 40.5744C1.44656 40.4077 1.44389 40.0744 1.44255 39.9077L1.44122 39.7411C1.60638 39.5731 1.60638 39.5731 1.60505 39.4064L1.60371 39.2397C1.60104 38.9064 1.59703 38.4064 1.42786 38.0744C1.42652 37.9078 1.42518 37.7411 1.42385 37.5745C1.41984 37.0745 1.41717 36.7412 1.41316 36.2412L1.41182 36.0745C1.74216 35.7385 1.90732 35.5705 2.23765 35.2345C2.40416 35.2332 2.40282 35.0665 2.56932 35.0652C3.40183 35.0585 4.23434 35.0518 5.06685 35.0452C7.73088 35.0238 10.2284 35.0038 12.8924 34.9824C13.8914 34.9744 14.8905 34.9664 15.8895 34.9584C16.5555 34.9531 17.2215 34.9477 17.8875 34.9424C18.387 34.9384 18.8865 34.9344 19.386 34.9304C19.8855 34.9264 20.2185 34.9237 20.718 34.9197C21.384 34.9144 22.05 34.909 22.716 34.9037C23.7151 34.8957 24.7141 34.8877 25.8796 34.8783C26.2126 34.8757 26.2126 34.8757 26.2153 35.209C26.2179 35.5423 26.2206 35.8756 26.0568 36.2103C26.0594 36.5436 25.8969 37.0449 25.8996 37.3783C25.9023 37.7116 25.7398 38.2129 25.7425 38.5462C25.58 39.0475 25.5826 39.3809 25.4202 39.8822C25.259 40.5502 25.0978 41.2181 24.9367 41.8861C24.7782 42.8874 24.4519 43.7234 24.1255 44.5594C23.8006 45.562 23.3077 46.3993 22.6484 47.238C22.3194 47.7406 21.8252 48.4113 21.4963 48.9139C20.8369 49.7526 20.1763 50.4246 19.3504 51.2645C19.0201 51.6005 18.5246 52.1045 18.1943 52.4405C17.8639 52.7765 17.3684 53.2805 17.0381 53.6165C16.7078 53.9525 16.3774 54.2885 15.8806 54.6258C15.2186 55.1311 14.7245 55.8018 14.0638 56.4737C13.8986 56.6417 13.7321 56.6431 13.7308 56.4764C13.5629 56.3111 13.3964 56.3124 13.2313 56.4804C12.9009 56.8164 12.572 57.3191 12.4081 57.6537C11.914 58.3244 11.5876 59.1603 11.26 59.8297C10.931 60.3323 10.7698 61.0003 10.7738 61.5003C10.7778 62.0003 10.7832 62.6669 10.9537 63.1656C11.1229 63.4975 11.2907 63.6629 11.6264 63.9935C11.7929 63.9922 11.7929 63.9922 11.9581 63.8242C12.287 63.3215 12.4495 62.8202 12.7799 62.4842C13.2714 61.4803 13.7629 60.4763 14.4208 59.471C14.0865 59.307 14.582 58.803 14.911 58.3004C15.24 57.7977 15.7368 57.4604 16.0658 56.9577C16.5613 56.4537 17.0568 55.9497 17.5523 55.4458C17.8813 54.9431 18.3781 54.6058 18.875 54.2684C19.7008 53.4285 20.6945 52.7538 21.6881 52.0792C22.185 51.7418 22.847 51.2365 23.3438 50.8992C23.5103 50.8978 23.5103 50.8978 23.5116 51.0645C23.6835 51.7298 23.6888 52.3965 23.5277 53.0644C23.3692 54.0657 23.0442 55.0684 22.8857 56.0697C22.7246 56.7377 22.5634 57.4056 22.4022 58.0736C22.4036 58.2403 22.4049 58.4069 22.4076 58.7403C22.4116 59.2403 22.2478 59.5749 22.0839 59.9096C21.9188 60.0776 21.9201 60.2442 21.7549 60.4122C21.5911 60.7469 21.7589 60.9122 21.9268 61.0775C22.2625 61.4082 22.5981 61.7388 22.9325 61.9028C23.769 62.3961 24.439 62.8908 25.2755 63.3841C25.7764 63.5468 26.2785 63.8761 26.778 63.8721C27.2789 64.0347 27.7784 64.0307 28.2766 63.8601C28.2766 63.8601 28.4431 63.8587 28.4417 63.6921C28.4404 63.5254 28.2739 63.5267 28.2726 63.3601C27.9369 63.0294 27.4347 62.7001 26.9339 62.5374C26.4317 62.2081 25.9295 61.8788 25.5938 61.5482C25.2582 61.2175 24.9211 60.7202 24.7506 60.2215C24.5815 59.8895 24.5801 59.7229 24.5775 59.3896C24.5681 58.2229 24.7266 57.2216 25.0516 56.219C25.2114 55.3844 25.5364 54.3817 25.8627 53.5457C26.1904 52.8764 26.518 52.2071 26.8457 51.5378C27.501 50.1992 27.9912 49.0285 28.6465 47.6899C28.8103 47.3552 28.9755 47.1872 28.9728 46.8539L29.138 46.6859L29.1393 46.8526C29.1527 48.5192 29.1674 50.3525 29.1807 52.0191C29.1941 53.6857 29.2074 55.3523 29.2208 57.0189C29.2248 57.5189 29.2301 58.1856 29.2342 58.6855C29.2355 58.8522 29.2382 59.1855 29.2395 59.3522C29.2422 59.6855 29.2448 60.0188 29.2462 60.1855C29.2515 60.8521 29.2569 61.5188 29.2622 62.1854C29.4354 63.0174 29.6046 63.3494 29.4421 63.8507ZM1.95057 61.7377C1.78273 61.5724 1.7814 61.4057 1.95057 61.7377C1.78273 61.5724 1.61757 61.7404 1.61757 61.7404C1.61757 61.7404 1.61757 61.7404 1.95057 61.7377C1.78407 61.739 1.78407 61.739 1.95057 61.7377Z" fill="white"/>
<path d="M42.832 30.909C43.831 30.901 44.497 30.8956 45.3295 30.889L45.496 30.8876C45.3295 30.889 45.3295 30.889 45.163 30.8903C44.83 30.893 44.3305 30.897 43.9975 30.8996C43.3315 30.905 42.832 30.909 42.166 30.9143C41.833 30.917 41.5 30.9197 41.0005 30.9237C40.834 30.925 40.6675 30.9263 40.4997 30.761C40.4983 30.5944 40.3318 30.5957 40.1653 30.597C39.4993 30.6024 38.9998 30.6064 38.3338 30.6117C38.5003 30.6104 38.8333 30.6077 39.0011 30.773C38.5043 31.1104 36.8393 31.1237 36.6701 30.7917C36.8366 30.7904 37.0031 30.789 37.1683 30.621C36.8339 30.4571 36.1679 30.4624 36.0028 30.6304L36.1706 30.7957C36.3384 30.961 36.1719 30.9624 36.1719 30.9624C35.8389 30.965 35.3394 30.9691 35.0064 30.9717C34.8399 30.9731 34.8386 30.8064 34.8386 30.8064C34.8373 30.6397 34.8346 30.3064 34.8332 30.1397C34.8306 29.8064 34.9944 29.4718 34.9917 29.1384C34.9891 28.8051 35.1529 28.4705 35.1502 28.1371C35.1476 27.8038 35.1449 27.4705 35.3087 27.1358C35.306 26.8025 35.4685 26.3012 35.4659 25.9679C35.4645 25.8012 35.4632 25.6346 35.4619 25.4679C35.4592 25.1346 35.4565 24.8012 35.4538 24.4679C35.4458 23.468 35.4365 22.3013 35.4285 21.3014C35.4244 20.8014 35.4204 20.3014 35.4164 19.8014C35.4124 19.3014 35.4084 18.8014 35.4044 18.3015C35.3991 17.6348 35.5602 16.9668 35.8879 16.2975C36.2142 15.4615 36.7084 14.7909 37.036 14.1216C37.5288 13.2843 37.8552 12.4483 38.348 11.611C38.8408 10.7737 39.1671 9.93769 39.4921 8.93505C39.9836 7.93108 40.3086 6.92844 40.8001 5.92447C41.1264 5.0885 41.4527 4.25252 41.6126 3.41788C41.7751 2.91656 41.9376 2.41524 41.9335 1.91526C41.767 1.91659 41.7684 2.08325 41.6032 2.25125C41.4434 3.08589 41.1171 3.92187 40.6229 4.59252C40.4591 4.92717 39.9596 4.93118 39.6266 4.93385C39.6266 4.93385 39.4601 4.93518 39.2936 4.93652C39.2936 4.93652 39.1271 4.93785 39.1284 5.10451L39.1297 5.27117C39.1378 6.27114 38.9779 7.10578 38.6516 7.94176C38.4891 8.44308 38.1601 8.94573 37.999 9.61371C37.5075 10.6177 37.0146 11.455 36.3567 12.4603C36.0277 12.963 35.6973 13.2989 35.3683 13.8016C35.2032 13.9696 35.0393 14.3043 34.7077 14.4736C34.2122 14.9776 33.5502 15.4829 32.5538 15.8242C32.5538 15.8242 32.3873 15.8256 32.2208 15.8269C32.2195 15.6602 32.2195 15.6602 32.2182 15.4936C32.1861 11.4937 32.154 7.49383 32.1206 3.3273C32.118 2.99397 32.1153 2.66065 32.1126 2.32733C32.1099 1.99401 32.1073 1.66068 32.4389 1.49135C32.6041 1.32336 32.7693 1.15536 32.9344 0.987365C32.7666 0.822038 32.9331 0.820704 33.0996 0.819369C34.0986 0.811361 35.0976 0.803352 36.0966 0.795344C38.2612 0.777993 40.4257 0.760641 42.5902 0.74329C45.2542 0.721934 48.0848 0.699244 50.7488 0.677888C52.2473 0.665876 53.7458 0.653863 55.2443 0.641851C55.4108 0.640516 55.7438 0.637847 55.913 0.969835C56.0809 1.13516 56.4165 1.46581 56.5844 1.63114C56.7522 1.79647 56.7522 1.79647 56.4205 1.9658C56.254 1.96713 56.254 1.96713 56.2554 2.13379C56.2594 2.63378 56.2621 2.9671 56.2661 3.46709C56.2701 3.96707 56.2741 4.46705 56.2781 4.96704C56.2808 5.30036 56.1183 5.80168 56.1209 6.135C56.1223 6.30166 56.1249 6.63498 56.1263 6.80165C56.1356 7.96828 56.145 9.1349 56.1557 10.4682C56.1811 13.6348 56.2051 16.6347 56.2305 19.8012C56.2385 20.8012 56.2465 21.8012 56.2545 22.8011C56.2585 23.3011 56.4291 23.7998 56.4331 24.2997C56.4344 24.4664 56.4371 24.7997 56.4384 24.9664C56.2759 25.4677 56.2799 25.9677 56.2839 26.4677C56.2879 26.9677 56.2933 27.6343 56.2973 28.1343C56.3 28.4676 56.304 28.9676 56.1401 29.3023C56.1401 29.3023 56.1415 29.4689 56.1401 29.3023C55.9736 29.3036 55.9736 29.3036 55.975 29.4703C55.9776 29.8036 55.9803 30.1369 55.983 30.4702C55.9843 30.6369 55.9843 30.6369 55.8178 30.6382C55.6513 30.6396 55.3183 30.6422 55.1518 30.6436C54.8188 30.6462 54.6523 30.6476 54.3193 30.6502C53.6533 30.6556 53.1538 30.6596 52.4878 30.6649C51.3223 30.6743 49.9903 30.6849 48.8247 30.6943C47.8257 30.7023 46.9932 30.709 45.9942 30.717C45.6612 30.7196 45.1617 30.7236 44.8287 30.7263C44.3292 30.7303 43.9962 30.733 43.4967 30.737C43.3302 30.7383 43.1637 30.7397 42.832 30.909Z" fill="white"/>
<path d="M53.8913 60.3213C53.894 60.6546 53.8966 60.9879 53.8993 61.3212C53.902 61.6546 53.902 61.6546 53.569 61.6572C53.0695 61.6612 52.7365 61.6639 52.237 61.6679C51.4045 61.6746 50.7385 61.6799 49.9059 61.6866C49.4064 61.6906 48.7404 61.6959 48.2409 61.6999C48.0744 61.7013 47.9079 61.7026 47.7428 61.8706C47.5776 62.0386 47.4111 62.0399 47.4098 61.8733C47.4098 61.8733 47.4084 61.7066 47.5736 61.5386C47.2406 61.5413 46.9076 61.544 46.7411 61.5453C45.0761 61.5586 43.5775 61.5707 41.9125 61.584C41.5795 61.5867 41.413 61.588 41.0813 61.7573C41.2478 61.756 41.2492 61.9227 41.4157 61.9213C42.2482 61.9147 43.0807 61.908 43.7467 61.9026L43.9132 61.9013C43.9145 62.068 43.9145 62.068 43.748 62.0693C43.415 62.072 43.2499 62.24 42.9169 62.2426C42.0844 62.2493 41.2519 62.256 40.4193 62.2627C40.0863 62.2653 39.5868 62.2693 39.2538 62.272C39.0873 62.2733 39.0873 62.2733 38.9195 62.108C38.9182 61.9414 38.7517 61.9427 38.5852 61.944C38.0856 61.948 37.5861 61.952 36.9201 61.9574C37.0866 61.956 37.2531 61.9547 37.421 62.12L37.5875 62.1187C37.2571 62.4547 37.0906 62.456 36.9241 62.4574C36.4246 62.4614 36.0916 62.464 35.5921 62.468C35.4256 62.4694 35.4256 62.4694 35.2578 62.304C35.2578 62.304 35.4243 62.3027 35.5895 62.1347C35.423 62.136 35.2565 62.1374 35.2565 62.1374C35.09 62.1387 35.0913 62.3054 35.0913 62.3054C35.0926 62.472 35.0926 62.472 34.9261 62.4734C34.5931 62.476 34.2615 62.6454 33.7619 62.6494C33.4289 62.652 32.9294 62.656 32.5964 62.6587C32.2634 62.6614 32.0956 62.4961 31.9278 62.3307C31.7599 62.1654 31.5907 61.8334 31.4229 61.6681C31.2564 61.6694 31.2551 61.5028 31.2537 61.3361C31.2056 55.3363 31.1575 49.3365 31.1108 43.5033C31.1068 43.0034 31.2706 42.6687 31.4344 42.334C31.9206 40.6634 32.5746 39.1581 33.0607 37.4875C33.383 36.1516 33.8732 34.9809 34.1955 33.645C34.1942 33.4783 34.3593 33.3103 34.358 33.1436C34.3566 32.977 34.6896 32.9743 34.8562 32.973C35.6887 32.9663 36.3547 32.961 37.1872 32.9543C37.6867 32.9503 38.0197 32.9476 38.5192 32.9436C43.5142 32.9036 48.5093 32.8635 53.5044 32.8235C53.6709 32.8222 53.8374 32.8208 54.0052 32.9862C54.173 33.1515 54.3409 33.3168 54.3422 33.4835C54.5114 33.8155 54.6806 34.1474 54.5167 34.4821C54.3516 34.6501 54.3542 34.9834 54.5221 35.1487C54.5234 35.3154 54.5247 35.4821 54.5261 35.6487C54.5314 36.3154 54.5354 36.8154 54.5408 37.482C54.5461 38.1486 54.5501 38.6486 54.5555 39.3153C54.5595 39.8153 54.5635 40.3152 54.5675 40.8152C54.5782 42.1485 54.5889 43.4818 54.5996 44.8151C54.6116 46.3151 54.6236 47.815 54.6356 49.315C54.6396 49.8149 54.6436 50.3149 54.6477 50.8149C54.6517 51.3149 54.6557 51.8149 54.6597 52.3149C54.6623 52.6482 54.6637 52.8148 54.6664 53.1482C54.6717 53.8148 54.677 54.4815 54.8476 54.9801C54.8502 55.3134 54.8516 55.4801 54.8542 55.8134C54.8569 56.1467 54.8596 56.4801 54.6957 56.8147C54.6971 56.9814 54.6971 56.9814 54.6984 57.148C54.7024 57.648 54.7078 58.3147 54.7118 58.8147C54.7158 59.3146 54.7185 59.648 54.7225 60.1479C54.7238 60.3146 54.7238 60.3146 54.7251 60.4813C54.0591 60.4866 54.0591 60.4866 53.8913 60.3213Z" fill="white"/>
<path d="M9.83478 6.67272C10.0053 7.17137 10.3396 7.33536 10.6753 7.66602C11.0123 8.16333 11.348 8.49398 11.685 8.9913C12.022 9.48861 12.359 9.98593 12.8612 10.3152C13.3647 10.8112 13.7031 11.4752 14.2066 11.9712C14.7114 12.6338 15.0498 13.2978 15.7198 13.7924C16.0595 14.6231 16.7282 14.9511 17.562 15.111C18.2293 15.2724 18.7302 15.435 19.3975 15.5964C20.0649 15.7577 20.5657 15.9203 21.0679 16.2496C21.7366 16.5776 22.2387 16.907 22.7423 17.4029C23.0779 17.7336 23.5801 18.0629 23.9158 18.3936C24.4193 18.8895 25.0893 19.3842 25.5928 19.8802C26.2642 20.5415 26.9369 21.3694 27.6096 22.1974C27.9466 22.6947 28.2849 23.3587 28.4568 24.024C28.4581 24.1907 28.4608 24.524 28.4634 24.8573C28.4688 25.524 28.4728 26.0239 28.3116 26.6919C28.1491 27.1932 27.8201 27.6959 27.6563 28.0305C27.4938 28.5319 27.1635 28.8679 27.001 29.3692C26.672 29.8718 26.5095 30.3731 26.5149 31.0398C26.3524 31.5411 26.3564 32.0411 26.1939 32.5424C26.1965 32.8757 26.1992 33.2091 26.0341 33.3771C26.0354 33.5437 26.0354 33.5437 25.8689 33.5451C25.0364 33.5517 24.3704 33.5571 23.5379 33.5637C22.3723 33.5731 21.2068 33.5824 20.0413 33.5918C19.2088 33.5984 18.3763 33.6051 17.5438 33.6118L17.7103 33.6105C18.2098 33.6064 18.7093 33.6024 19.0423 33.5998C19.0423 33.5998 19.3753 33.5971 19.2101 33.7651C19.2101 33.7651 19.0436 33.7664 18.8771 33.7678C18.5441 33.7704 18.2111 33.7731 17.7116 33.7771C16.7126 33.7851 15.7136 33.7931 14.5481 33.8025C14.3816 33.8038 14.0486 33.8065 13.8808 33.6412C13.8808 33.6412 13.7129 33.4758 13.7143 33.6425L13.7156 33.8091C13.7156 33.8091 13.7156 33.8091 13.7169 33.9758C13.5518 34.1438 13.5518 34.1438 13.3853 34.1451C13.3853 34.1451 13.2188 34.1465 13.2174 33.9798C13.2147 33.6465 12.8817 33.6492 12.7152 33.6505C11.8814 33.4905 10.8837 33.6652 10.0512 33.6719C9.88471 33.6732 9.71821 33.6745 9.38521 33.6772C9.55171 33.6759 9.71955 33.8412 9.71955 33.8412C9.71955 33.8412 9.88605 33.8398 9.88738 34.0065C9.88738 34.0065 9.88738 34.0065 9.72088 34.0078C9.55438 34.0092 9.55438 34.0092 9.38788 34.0105C8.3902 34.1852 7.55769 34.1919 6.55868 34.1999C6.22568 34.2025 6.05918 34.2039 5.89 33.8719L5.72217 33.7066C5.38783 33.5426 5.38515 33.2092 5.38248 32.8759C5.34507 28.2094 5.309 23.7095 5.27159 19.043C5.23419 14.3765 5.19544 9.54333 5.15803 4.87682C5.15536 4.5435 5.15269 4.21017 5.48436 4.04084C5.81736 4.03817 5.98253 3.87018 6.14769 3.70218L6.31419 3.70085C6.9802 3.69551 7.81271 3.68883 8.47872 3.6835C11.9753 3.65547 15.6383 3.6261 19.1348 3.59807C19.4678 3.5954 19.9673 3.5914 20.3003 3.58873C21.2994 3.58072 22.2984 3.57271 23.2974 3.56471C24.1299 3.55803 25.1289 3.55002 25.9614 3.54335C26.9604 3.53534 27.9594 3.52733 28.7919 3.52066C28.9584 3.51932 29.1249 3.51799 29.1263 3.68465C29.2941 3.84998 29.6298 4.18063 29.7976 4.34596C29.9655 4.51128 29.9655 4.51128 29.9668 4.67795C29.9775 6.01124 29.9882 7.34453 29.9989 8.67782C30.0136 10.5111 30.0283 12.3444 30.043 14.1776C30.0456 14.511 30.0483 14.8443 29.8845 15.1789C29.8845 15.1789 29.8858 15.3456 29.7193 15.3469C29.7193 15.3469 29.5528 15.3483 29.5515 15.1816C29.3836 15.0163 29.3823 14.8496 29.381 14.683C29.2104 14.1843 29.2051 13.5177 29.2011 13.0177C29.1958 12.351 29.3582 11.8497 29.3529 11.1831C29.3476 10.5164 29.5101 10.0151 29.1717 9.35114C29.0025 9.01915 28.8347 8.85382 28.5004 8.68983C28.166 8.52584 27.8317 8.36185 27.3308 8.19919C26.497 8.0392 25.6658 8.21254 25.0065 9.05118C24.6775 9.55383 24.3498 10.2231 24.1887 10.8911C24.0275 11.5591 24.0329 12.2258 24.3712 12.8897C24.5404 13.2217 24.7096 13.5537 25.0452 13.8844C25.2131 14.0497 25.5474 14.2137 25.7166 14.5457C25.8844 14.711 25.8844 14.711 25.7193 14.879C25.7193 14.879 25.7193 14.879 25.5528 14.8803C25.2197 14.883 24.7202 14.887 24.3872 14.8897C23.3882 14.8977 22.3879 14.739 21.5527 14.4124C20.7175 14.0857 19.8823 13.7591 19.0472 13.4324C18.212 13.1058 17.209 12.6138 16.2046 11.9552C15.5346 11.4605 14.8659 11.1325 14.1946 10.4712C13.5245 9.97658 12.8532 9.31528 12.5135 8.48464C12.5122 8.31798 12.3443 8.15265 12.1765 7.98733C12.1752 7.82066 12.0087 7.822 12.01 7.98866C11.6797 8.32465 11.6797 8.32465 11.344 7.994C11.0096 7.83001 10.6726 7.33269 10.1705 7.00337C10.1691 6.83671 10.0026 6.83805 9.83478 6.67272Z" fill="white"/>
<path d="M11.5512 33.8265C11.7177 33.8252 12.0507 33.8225 12.3837 33.8198C12.3837 33.8198 12.5503 33.8185 12.5516 33.9851L12.3864 34.1531C11.8869 34.1571 11.5539 34.1598 11.0544 34.1638C10.8879 34.1652 10.7214 34.1665 10.3871 34.0025C10.3871 34.0025 10.2206 34.0038 10.2192 33.8372C10.2192 33.8372 10.2192 33.8372 10.3844 33.6692C10.5496 33.5012 10.8826 33.4985 11.0491 33.4972C11.2169 33.6625 11.3847 33.8278 11.5512 33.8265Z" fill="white"/>
<path d="M38.7543 62.276C38.7556 62.4427 38.7556 62.4427 38.7543 62.276C38.5891 62.444 38.4226 62.4454 38.2561 62.4467C38.2561 62.4467 38.0896 62.448 38.0883 62.2814C38.0883 62.2814 38.0869 62.1147 38.2534 62.1134C38.4213 62.2787 38.5878 62.2774 38.7543 62.276Z" fill="white"/>
<path d="M40.0041 31.265L39.8376 31.2663C39.6698 31.101 39.6698 31.101 39.8363 31.0997C40.0028 31.0983 40.0028 31.0983 40.1693 31.097L40.3371 31.2623C40.3371 31.2623 40.1706 31.2637 40.0041 31.265Z" fill="white"/>
<path d="M23.2062 33.7331C23.2075 33.8997 23.041 33.9011 23.041 33.9011C22.8745 33.9024 22.8745 33.9024 22.8732 33.7357C22.8718 33.5691 23.0383 33.5677 23.0383 33.5677C23.0383 33.5677 23.0397 33.7344 23.2062 33.7331Z" fill="white"/>
</g>
<defs>
<clipPath id="clip0">
<rect width="55.9464" height="64.5" fill="white" transform="translate(0.79834 1.07831) rotate(-0.459288)"/>
</clipPath>
</defs>
</svg>
